<mxfile host="app.diagrams.net" agent="Mozilla/5.0 (Macintosh; Intel Mac OS X 10_15_7) AppleWebKit/605.1.15 (KHTML, like Gecko) Version/18.3.1 Safari/605.1.15" version="27.0.5">
  <diagram name="Pagina-1" id="mVoynPjnKJAdA9bZPo2X">
    <mxGraphModel dx="1018" dy="725" grid="1" gridSize="10" guides="1" tooltips="1" connect="1" arrows="1" fold="1" page="1" pageScale="1" pageWidth="827" pageHeight="1169" math="0" shadow="0">
      <root>
        <mxCell id="0" />
        <mxCell id="1" parent="0" />
        <mxCell id="CoP8-WGzNGgvlfM8O0yQ-1" value="[State 0] Waiting Room/ Tutorial" style="rounded=1;whiteSpace=wrap;html=1;" vertex="1" parent="1">
          <mxGeometry x="200" y="60" width="110" height="60" as="geometry" />
        </mxCell>
        <mxCell id="CoP8-WGzNGgvlfM8O0yQ-3" style="edgeStyle=orthogonalEdgeStyle;rounded=0;orthogonalLoop=1;jettySize=auto;html=1;entryX=0;entryY=0.5;entryDx=0;entryDy=0;" edge="1" parent="1" source="CoP8-WGzNGgvlfM8O0yQ-2" target="CoP8-WGzNGgvlfM8O0yQ-1">
          <mxGeometry relative="1" as="geometry" />
        </mxCell>
        <mxCell id="CoP8-WGzNGgvlfM8O0yQ-2" value="" style="ellipse;whiteSpace=wrap;html=1;aspect=fixed;fillColor=#000000;" vertex="1" parent="1">
          <mxGeometry x="90" y="80" width="20" height="20" as="geometry" />
        </mxCell>
        <mxCell id="CoP8-WGzNGgvlfM8O0yQ-5" value="" style="endArrow=classic;html=1;rounded=0;exitX=1;exitY=0.5;exitDx=0;exitDy=0;" edge="1" parent="1" source="CoP8-WGzNGgvlfM8O0yQ-1" target="CoP8-WGzNGgvlfM8O0yQ-7">
          <mxGeometry relative="1" as="geometry">
            <mxPoint x="314" y="89.5" as="sourcePoint" />
            <mxPoint x="414" y="89.5" as="targetPoint" />
          </mxGeometry>
        </mxCell>
        <mxCell id="CoP8-WGzNGgvlfM8O0yQ-6" value="loadIntroduction" style="edgeLabel;resizable=0;html=1;;align=center;verticalAlign=middle;" connectable="0" vertex="1" parent="CoP8-WGzNGgvlfM8O0yQ-5">
          <mxGeometry relative="1" as="geometry" />
        </mxCell>
        <mxCell id="CoP8-WGzNGgvlfM8O0yQ-7" value="[State 1]Introduction, SetUp Game" style="rounded=1;whiteSpace=wrap;html=1;" vertex="1" parent="1">
          <mxGeometry x="470" y="60" width="130" height="60" as="geometry" />
        </mxCell>
        <mxCell id="CoP8-WGzNGgvlfM8O0yQ-11" value="" style="endArrow=classic;html=1;rounded=0;exitX=0.25;exitY=0;exitDx=0;exitDy=0;entryX=0.75;entryY=0;entryDx=0;entryDy=0;" edge="1" parent="1" source="CoP8-WGzNGgvlfM8O0yQ-7" target="CoP8-WGzNGgvlfM8O0yQ-7">
          <mxGeometry relative="1" as="geometry">
            <mxPoint x="360" y="380" as="sourcePoint" />
            <mxPoint x="460" y="380" as="targetPoint" />
            <Array as="points">
              <mxPoint x="503" y="30" />
              <mxPoint x="535" y="30" />
              <mxPoint x="568" y="30" />
            </Array>
          </mxGeometry>
        </mxCell>
        <mxCell id="CoP8-WGzNGgvlfM8O0yQ-12" value="changeDifficulty" style="edgeLabel;resizable=0;html=1;;align=center;verticalAlign=middle;rotation=0;" connectable="0" vertex="1" parent="CoP8-WGzNGgvlfM8O0yQ-11">
          <mxGeometry relative="1" as="geometry" />
        </mxCell>
        <mxCell id="CoP8-WGzNGgvlfM8O0yQ-13" value="" style="endArrow=classic;html=1;rounded=0;exitX=1;exitY=0.5;exitDx=0;exitDy=0;entryX=0.5;entryY=0;entryDx=0;entryDy=0;" edge="1" parent="1" source="CoP8-WGzNGgvlfM8O0yQ-7" target="CoP8-WGzNGgvlfM8O0yQ-15">
          <mxGeometry relative="1" as="geometry">
            <mxPoint x="360" y="350" as="sourcePoint" />
            <mxPoint x="730" y="210" as="targetPoint" />
            <Array as="points">
              <mxPoint x="720" y="90" />
            </Array>
          </mxGeometry>
        </mxCell>
        <mxCell id="CoP8-WGzNGgvlfM8O0yQ-14" value="startGame" style="edgeLabel;resizable=0;html=1;;align=center;verticalAlign=middle;" connectable="0" vertex="1" parent="CoP8-WGzNGgvlfM8O0yQ-13">
          <mxGeometry relative="1" as="geometry">
            <mxPoint x="-25" as="offset" />
          </mxGeometry>
        </mxCell>
        <mxCell id="CoP8-WGzNGgvlfM8O0yQ-15" value="[State 2] Level 1 Cyber Attack Detection" style="rounded=1;whiteSpace=wrap;html=1;" vertex="1" parent="1">
          <mxGeometry x="650" y="140" width="140" height="60" as="geometry" />
        </mxCell>
        <mxCell id="CoP8-WGzNGgvlfM8O0yQ-16" value="" style="endArrow=classic;html=1;rounded=0;exitX=0.5;exitY=1;exitDx=0;exitDy=0;entryX=0.5;entryY=0;entryDx=0;entryDy=0;" edge="1" parent="1" source="CoP8-WGzNGgvlfM8O0yQ-15" target="CoP8-WGzNGgvlfM8O0yQ-23">
          <mxGeometry relative="1" as="geometry">
            <mxPoint x="320" y="350" as="sourcePoint" />
            <mxPoint x="720" y="300" as="targetPoint" />
          </mxGeometry>
        </mxCell>
        <mxCell id="CoP8-WGzNGgvlfM8O0yQ-17" value="rightDetection" style="edgeLabel;resizable=0;html=1;;align=center;verticalAlign=middle;" connectable="0" vertex="1" parent="CoP8-WGzNGgvlfM8O0yQ-16">
          <mxGeometry relative="1" as="geometry" />
        </mxCell>
        <mxCell id="CoP8-WGzNGgvlfM8O0yQ-18" value="" style="endArrow=classic;html=1;rounded=0;exitX=0;exitY=0.25;exitDx=0;exitDy=0;entryX=1;entryY=0.25;entryDx=0;entryDy=0;" edge="1" parent="1" source="CoP8-WGzNGgvlfM8O0yQ-15" target="CoP8-WGzNGgvlfM8O0yQ-20">
          <mxGeometry relative="1" as="geometry">
            <mxPoint x="320" y="350" as="sourcePoint" />
            <mxPoint x="520" y="170" as="targetPoint" />
          </mxGeometry>
        </mxCell>
        <mxCell id="CoP8-WGzNGgvlfM8O0yQ-19" value="wrongDetection" style="edgeLabel;resizable=0;html=1;;align=center;verticalAlign=middle;" connectable="0" vertex="1" parent="CoP8-WGzNGgvlfM8O0yQ-18">
          <mxGeometry relative="1" as="geometry" />
        </mxCell>
        <mxCell id="CoP8-WGzNGgvlfM8O0yQ-20" value="[State 2a] Level 1 Guide and explanation" style="rounded=1;whiteSpace=wrap;html=1;" vertex="1" parent="1">
          <mxGeometry x="390" y="140" width="130" height="60" as="geometry" />
        </mxCell>
        <mxCell id="CoP8-WGzNGgvlfM8O0yQ-21" value="" style="endArrow=classic;html=1;rounded=0;exitX=0;exitY=0.75;exitDx=0;exitDy=0;entryX=1;entryY=0.75;entryDx=0;entryDy=0;" edge="1" parent="1" source="CoP8-WGzNGgvlfM8O0yQ-15" target="CoP8-WGzNGgvlfM8O0yQ-20">
          <mxGeometry relative="1" as="geometry">
            <mxPoint x="320" y="350" as="sourcePoint" />
            <mxPoint x="420" y="350" as="targetPoint" />
          </mxGeometry>
        </mxCell>
        <mxCell id="CoP8-WGzNGgvlfM8O0yQ-22" value="timeIsUp" style="edgeLabel;resizable=0;html=1;;align=center;verticalAlign=middle;" connectable="0" vertex="1" parent="CoP8-WGzNGgvlfM8O0yQ-21">
          <mxGeometry relative="1" as="geometry" />
        </mxCell>
        <mxCell id="CoP8-WGzNGgvlfM8O0yQ-23" value="[State 3] Level 2 Take Corrective Actions" style="rounded=1;whiteSpace=wrap;html=1;" vertex="1" parent="1">
          <mxGeometry x="660" y="290" width="120" height="60" as="geometry" />
        </mxCell>
        <mxCell id="CoP8-WGzNGgvlfM8O0yQ-26" value="" style="endArrow=classic;html=1;rounded=0;exitX=0.5;exitY=1;exitDx=0;exitDy=0;entryX=0;entryY=0.25;entryDx=0;entryDy=0;" edge="1" parent="1" source="CoP8-WGzNGgvlfM8O0yQ-20" target="CoP8-WGzNGgvlfM8O0yQ-23">
          <mxGeometry relative="1" as="geometry">
            <mxPoint x="320" y="350" as="sourcePoint" />
            <mxPoint x="420" y="350" as="targetPoint" />
            <Array as="points">
              <mxPoint x="455" y="305" />
            </Array>
          </mxGeometry>
        </mxCell>
        <mxCell id="CoP8-WGzNGgvlfM8O0yQ-27" value="nextLevel" style="edgeLabel;resizable=0;html=1;;align=center;verticalAlign=middle;" connectable="0" vertex="1" parent="CoP8-WGzNGgvlfM8O0yQ-26">
          <mxGeometry relative="1" as="geometry">
            <mxPoint x="52" as="offset" />
          </mxGeometry>
        </mxCell>
        <mxCell id="CoP8-WGzNGgvlfM8O0yQ-28" value="[State 4] Level 3 Restore Systems" style="rounded=1;whiteSpace=wrap;html=1;" vertex="1" parent="1">
          <mxGeometry x="660" y="450" width="120" height="60" as="geometry" />
        </mxCell>
        <mxCell id="CoP8-WGzNGgvlfM8O0yQ-29" value="" style="endArrow=classic;html=1;rounded=0;exitX=0.5;exitY=1;exitDx=0;exitDy=0;entryX=0.5;entryY=0;entryDx=0;entryDy=0;" edge="1" parent="1" source="CoP8-WGzNGgvlfM8O0yQ-23" target="CoP8-WGzNGgvlfM8O0yQ-28">
          <mxGeometry relative="1" as="geometry">
            <mxPoint x="320" y="420" as="sourcePoint" />
            <mxPoint x="420" y="420" as="targetPoint" />
          </mxGeometry>
        </mxCell>
        <mxCell id="CoP8-WGzNGgvlfM8O0yQ-30" value="AllCorrectiveActionsTaken" style="edgeLabel;resizable=0;html=1;;align=center;verticalAlign=middle;" connectable="0" vertex="1" parent="CoP8-WGzNGgvlfM8O0yQ-29">
          <mxGeometry relative="1" as="geometry" />
        </mxCell>
        <mxCell id="CoP8-WGzNGgvlfM8O0yQ-31" value="[State 3a] Level 2 Guide and explanation" style="rounded=1;whiteSpace=wrap;html=1;" vertex="1" parent="1">
          <mxGeometry x="390" y="370" width="130" height="60" as="geometry" />
        </mxCell>
        <mxCell id="CoP8-WGzNGgvlfM8O0yQ-32" value="" style="endArrow=classic;html=1;rounded=0;exitX=0;exitY=0.75;exitDx=0;exitDy=0;entryX=0.5;entryY=0;entryDx=0;entryDy=0;" edge="1" parent="1" source="CoP8-WGzNGgvlfM8O0yQ-23" target="CoP8-WGzNGgvlfM8O0yQ-31">
          <mxGeometry relative="1" as="geometry">
            <mxPoint x="320" y="420" as="sourcePoint" />
            <mxPoint x="420" y="420" as="targetPoint" />
            <Array as="points">
              <mxPoint x="455" y="335" />
            </Array>
          </mxGeometry>
        </mxCell>
        <mxCell id="CoP8-WGzNGgvlfM8O0yQ-33" value="timeIsUp" style="edgeLabel;resizable=0;html=1;;align=center;verticalAlign=middle;" connectable="0" vertex="1" parent="CoP8-WGzNGgvlfM8O0yQ-32">
          <mxGeometry relative="1" as="geometry">
            <mxPoint x="20" as="offset" />
          </mxGeometry>
        </mxCell>
        <mxCell id="CoP8-WGzNGgvlfM8O0yQ-34" value="" style="endArrow=classic;html=1;rounded=0;exitX=0.5;exitY=1;exitDx=0;exitDy=0;entryX=0;entryY=0.25;entryDx=0;entryDy=0;" edge="1" parent="1" source="CoP8-WGzNGgvlfM8O0yQ-31" target="CoP8-WGzNGgvlfM8O0yQ-28">
          <mxGeometry relative="1" as="geometry">
            <mxPoint x="320" y="350" as="sourcePoint" />
            <mxPoint x="420" y="350" as="targetPoint" />
            <Array as="points">
              <mxPoint x="455" y="465" />
            </Array>
          </mxGeometry>
        </mxCell>
        <mxCell id="CoP8-WGzNGgvlfM8O0yQ-35" value="nextLevel" style="edgeLabel;resizable=0;html=1;;align=center;verticalAlign=middle;" connectable="0" vertex="1" parent="CoP8-WGzNGgvlfM8O0yQ-34">
          <mxGeometry relative="1" as="geometry">
            <mxPoint x="27" as="offset" />
          </mxGeometry>
        </mxCell>
        <mxCell id="CoP8-WGzNGgvlfM8O0yQ-36" value="" style="endArrow=classic;html=1;rounded=0;exitX=1;exitY=0.5;exitDx=0;exitDy=0;entryX=0.75;entryY=0;entryDx=0;entryDy=0;" edge="1" parent="1" source="CoP8-WGzNGgvlfM8O0yQ-23" target="CoP8-WGzNGgvlfM8O0yQ-23">
          <mxGeometry relative="1" as="geometry">
            <mxPoint x="320" y="350" as="sourcePoint" />
            <mxPoint x="420" y="350" as="targetPoint" />
            <Array as="points">
              <mxPoint x="900" y="320" />
              <mxPoint x="900" y="270" />
              <mxPoint x="750" y="270" />
            </Array>
          </mxGeometry>
        </mxCell>
        <mxCell id="CoP8-WGzNGgvlfM8O0yQ-37" value="takeCorrectiveAction" style="edgeLabel;resizable=0;html=1;;align=center;verticalAlign=middle;" connectable="0" vertex="1" parent="CoP8-WGzNGgvlfM8O0yQ-36">
          <mxGeometry relative="1" as="geometry">
            <mxPoint x="-60" as="offset" />
          </mxGeometry>
        </mxCell>
        <mxCell id="CoP8-WGzNGgvlfM8O0yQ-41" value="" style="endArrow=classic;html=1;rounded=0;exitX=1;exitY=0.5;exitDx=0;exitDy=0;entryX=0.75;entryY=0;entryDx=0;entryDy=0;" edge="1" parent="1" source="CoP8-WGzNGgvlfM8O0yQ-28" target="CoP8-WGzNGgvlfM8O0yQ-28">
          <mxGeometry relative="1" as="geometry">
            <mxPoint x="830" y="479.65999999999997" as="sourcePoint" />
            <mxPoint x="930" y="479.65999999999997" as="targetPoint" />
            <Array as="points">
              <mxPoint x="900" y="480" />
              <mxPoint x="900" y="430" />
              <mxPoint x="750" y="430" />
            </Array>
          </mxGeometry>
        </mxCell>
        <mxCell id="CoP8-WGzNGgvlfM8O0yQ-42" value="resoreSystem" style="edgeLabel;resizable=0;html=1;;align=center;verticalAlign=middle;" connectable="0" vertex="1" parent="CoP8-WGzNGgvlfM8O0yQ-41">
          <mxGeometry relative="1" as="geometry">
            <mxPoint x="-50" as="offset" />
          </mxGeometry>
        </mxCell>
        <mxCell id="CoP8-WGzNGgvlfM8O0yQ-43" value="[State 4a] Level 3 Guide and explanation" style="rounded=1;whiteSpace=wrap;html=1;" vertex="1" parent="1">
          <mxGeometry x="390" y="525" width="130" height="60" as="geometry" />
        </mxCell>
        <mxCell id="CoP8-WGzNGgvlfM8O0yQ-46" value="" style="endArrow=classic;html=1;rounded=0;exitX=-0.017;exitY=0.615;exitDx=0;exitDy=0;exitPerimeter=0;entryX=0.5;entryY=0;entryDx=0;entryDy=0;" edge="1" parent="1" source="CoP8-WGzNGgvlfM8O0yQ-28" target="CoP8-WGzNGgvlfM8O0yQ-43">
          <mxGeometry relative="1" as="geometry">
            <mxPoint x="530" y="430" as="sourcePoint" />
            <mxPoint x="630" y="430" as="targetPoint" />
            <Array as="points">
              <mxPoint x="455" y="487" />
            </Array>
          </mxGeometry>
        </mxCell>
        <mxCell id="CoP8-WGzNGgvlfM8O0yQ-47" value="timeIsUp" style="edgeLabel;resizable=0;html=1;;align=center;verticalAlign=middle;" connectable="0" vertex="1" parent="CoP8-WGzNGgvlfM8O0yQ-46">
          <mxGeometry relative="1" as="geometry">
            <mxPoint x="31" as="offset" />
          </mxGeometry>
        </mxCell>
        <mxCell id="CoP8-WGzNGgvlfM8O0yQ-48" value="Stats and Results" style="rounded=1;whiteSpace=wrap;html=1;" vertex="1" parent="1">
          <mxGeometry x="660" y="585" width="120" height="60" as="geometry" />
        </mxCell>
        <mxCell id="CoP8-WGzNGgvlfM8O0yQ-49" value="" style="endArrow=classic;html=1;rounded=0;exitX=0.5;exitY=1;exitDx=0;exitDy=0;entryX=0.5;entryY=0;entryDx=0;entryDy=0;" edge="1" parent="1" source="CoP8-WGzNGgvlfM8O0yQ-28" target="CoP8-WGzNGgvlfM8O0yQ-48">
          <mxGeometry relative="1" as="geometry">
            <mxPoint x="500" y="430" as="sourcePoint" />
            <mxPoint x="600" y="430" as="targetPoint" />
          </mxGeometry>
        </mxCell>
        <mxCell id="CoP8-WGzNGgvlfM8O0yQ-50" value="allSystemsRestored" style="edgeLabel;resizable=0;html=1;;align=center;verticalAlign=middle;" connectable="0" vertex="1" parent="CoP8-WGzNGgvlfM8O0yQ-49">
          <mxGeometry relative="1" as="geometry" />
        </mxCell>
        <mxCell id="CoP8-WGzNGgvlfM8O0yQ-51" value="" style="endArrow=classic;html=1;rounded=0;exitX=0.5;exitY=1;exitDx=0;exitDy=0;entryX=0;entryY=0.5;entryDx=0;entryDy=0;" edge="1" parent="1" source="CoP8-WGzNGgvlfM8O0yQ-43" target="CoP8-WGzNGgvlfM8O0yQ-48">
          <mxGeometry relative="1" as="geometry">
            <mxPoint x="500" y="430" as="sourcePoint" />
            <mxPoint x="600" y="430" as="targetPoint" />
            <Array as="points">
              <mxPoint x="455" y="615" />
            </Array>
          </mxGeometry>
        </mxCell>
        <mxCell id="CoP8-WGzNGgvlfM8O0yQ-52" value="nextScene" style="edgeLabel;resizable=0;html=1;;align=center;verticalAlign=middle;" connectable="0" vertex="1" parent="CoP8-WGzNGgvlfM8O0yQ-51">
          <mxGeometry relative="1" as="geometry">
            <mxPoint x="27" as="offset" />
          </mxGeometry>
        </mxCell>
      </root>
    </mxGraphModel>
  </diagram>
</mxfile>
